<?xml version="1.0" encoding="utf-8"?>
<!-- Generator: Adobe Illustrator 25.2.0, SVG Export Plug-In . SVG Version: 6.00 Build 0)  -->
<svg version="1.1" id="Layer_1" xmlns="http://www.w3.org/2000/svg" xmlns:xlink="http://www.w3.org/1999/xlink" x="0px" y="0px"
	 viewBox="0 0 500 500" style="enable-background:new 0 0 500 500;" xml:space="preserve">
<g>
	<g>
		<path d="M354.41,85.08c-38.65-1.51-77.3-3.03-115.95-4.53c-17.33-0.67-34.96-1.27-51.98,2.61c-13.98,3.19-26.73,9.73-37.14,19.62
			c-19.16,18.2-29.53,45.72-25.63,72.01c1.16,7.79,3.87,15.23,5.53,22.92c1.72,7.97,2.21,16.69-2.89,23.59
			c-2.5,3.38-5.96,5.96-9.36,8.36c-3.83,2.7-7.69,5.36-11.53,8.04c-7.87,5.49-15.75,10.98-23.62,16.46
			c-6.81,4.74-14.01,9.28-19.86,15.23c-5.45,5.55-9.11,12.39-10.99,19.92c-3.91,15.65-1.48,32.96,2.49,48.35
			c2.12,8.23,5,16.26,8.55,23.99c3.37,7.33,7.28,14.59,12.27,20.95c5.01,6.39,11.22,11.15,18.82,14.06
			c8.37,3.21,17.42,4.81,26.12,6.88c18.71,4.47,37.42,8.93,56.13,13.4c9.28,2.22,18.55,4.52,27.86,6.63
			c8.77,1.99,17.85,3.62,26.87,2.78c14.68-1.37,28.38-9.83,31.66-24.95c1.65-7.6,0.88-15.51-0.56-23.08
			c-1.55-8.14-3.78-16.17-6.24-24.08c-9.97-31.97-25.1-62.17-33.6-94.62c-2.13-8.11-3.84-16.35-4.86-24.68
			c-0.87-7-2.34-15.85,1.63-22.21c2.17-3.48,5.84-5.12,9.7-6.05c3.87-0.94,7.88-1.5,11.83-1.99c7.76-0.98,16.24-1.39,23.54,1.93
			c15.6,7.09,17.28,26.26,17.79,41.18c0.3,8.85,0.8,17.57,3.09,26.17c2.07,7.79,5.16,15.27,8.41,22.63
			c6.82,15.48,14.05,30.6,16.06,47.59c2.05,17.34,0.46,34.9,2.65,52.23c1.02,8.07,2.66,16.48,6.36,23.8
			c1.56,3.08,3.66,5.92,6.46,7.98c3.39,2.49,7.57,3.68,11.61,4.65c16.34,3.92,34.62,2.95,50.01-4.08
			c6.67-3.04,12.75-7.58,16.8-13.76c4.45-6.8,6.13-15.05,6.83-23.03c1.36-15.5-1.82-31.34-8.73-45.25
			c-3.48-7-7.96-13.44-13.21-19.22c-5.42-5.96-11.48-11.3-17.07-17.08c-5.77-5.97-10.77-12.44-14.26-20.01
			c-3.57-7.72-5.67-16.06-7.2-24.4c-2.7-14.72-4.08-30.49,0.14-45.06c2.06-7.12,5.61-13.77,10.82-19.08
			c4.6-4.69,10.26-8.16,16.28-10.72c24.54-10.45,54.72-8.34,74.04-29.36c9.39-10.23,14.8-23.67,16.17-37.4
			c0.34-3.39,0.42-6.8,0.24-10.21c-0.19-3.53-0.44-7.37-1.64-10.73c-2.6-7.28-11.1-9.03-17.96-9.61
			c-16.25-1.39-31.8,6.64-44.6,15.85c-12.91,9.29-23.97,20.87-37.02,29.97c-6.26,4.36-12.97,8.22-20.24,10.62
			c-3.64,1.2-7.4,2.06-11.22,2.43c-1.72,0.17-3.83,0.45-5.43-0.38c-1.9-0.98-2.09-3.27-1.97-5.18c0.44-7.2,3.59-14.59,7.41-20.6
			c3.96-6.24,9.29-11.65,15.56-15.59c5.17-3.24,13.15-5.74,14.9-12.37c1.23-4.68-1.3-11.04-6.82-10.92c-1.93,0.04-1.93,3.04,0,3
			c3.02-0.07,4.29,3.3,4.12,5.88c-0.24,3.57-3.47,5.96-6.3,7.64c-3.15,1.88-6.47,3.43-9.49,5.54c-2.82,1.97-5.45,4.21-7.83,6.69
			c-4.85,5.05-8.67,11.02-11.28,17.51c-1.35,3.36-2.35,6.86-2.94,10.44c-0.48,2.92-0.79,6.3,1.12,8.81
			c2.05,2.69,5.52,2.83,8.62,2.55c3.66-0.33,7.29-1.04,10.82-2.09c7.04-2.11,13.62-5.54,19.75-9.55
			c13.04-8.55,23.94-19.77,36.27-29.23c12.68-9.72,28.03-18.74,44.54-18.16c3.86,0.14,7.92,0.75,11.52,2.21
			c4.13,1.67,5.78,4.83,6.47,9.06c1.15,7.03,0.96,14.37-0.31,21.36c-2.47,13.6-9.19,26.56-19.95,35.4
			c-10.43,8.57-23.91,12.04-36.8,15c-12.66,2.91-25.84,5.32-37.29,11.77c-12.01,6.77-19.97,17.98-23.17,31.33
			c-3.42,14.28-2.08,29.32,0.51,43.61c1.46,8.03,3.47,15.99,6.69,23.52c3.12,7.27,7.49,13.72,12.78,19.57
			c5.4,5.97,11.46,11.3,17.06,17.08c5.45,5.63,10.24,11.76,14.01,18.64c7.55,13.78,11.1,29.71,9.99,45.38
			c-0.58,8.24-2.28,16.84-7.11,23.72c-4.41,6.28-11.29,10.51-18.38,13.17c-8.05,3.02-16.71,4.46-25.28,4.57
			c-8.67,0.1-18.39-0.84-26.41-4.38c-7.78-3.43-10.69-11.69-12.7-19.35c-2.2-8.37-2.99-17.01-3.34-25.63
			c-0.69-17.01,0.3-34.29-3.75-50.97c-3.83-15.78-11.87-30.05-17.83-45.04c-2.91-7.34-5.36-14.92-6.48-22.76
			c-1.32-9.27-0.78-18.69-1.78-27.98c-1.51-13.97-7.5-28.62-21.96-33.26c-7.18-2.3-14.96-1.89-22.34-0.93
			c-6.86,0.9-15.27,1.4-20.71,6.19c-5.24,4.61-5.91,12.22-5.55,18.75c0.44,7.95,1.74,15.91,3.38,23.69
			c3.4,16.07,8.77,31.64,14.58,46.97c5.87,15.48,12.22,30.78,17.67,46.42c2.71,7.79,5.2,15.65,7.28,23.64
			c2,7.69,3.86,15.57,4.05,23.55c0.18,7.95-1.54,16.1-7.05,22.11c-4.91,5.35-11.84,8.43-18.88,9.74
			c-8.94,1.67-18.19,0.32-26.98-1.56c-9.03-1.93-18-4.22-26.98-6.37c-18.44-4.4-36.89-8.81-55.33-13.21
			c-8.79-2.1-17.75-3.87-26.39-6.52c-8.1-2.49-14.89-6.63-20.36-13.14c-5.22-6.22-9.17-13.59-12.6-20.91
			c-3.66-7.79-6.57-15.94-8.72-24.28c-3.98-15.44-6.52-33.1-1.96-48.69c2.3-7.87,6.8-14.38,12.98-19.72
			c6.62-5.73,14.19-10.45,21.36-15.45c7.65-5.33,15.3-10.66,22.94-15.99c6.52-4.54,14.18-8.88,18.38-15.88
			c8.34-13.91-0.51-30.63-3.09-44.87c-2.35-12.92-0.88-26.37,3.45-38.72c4.38-12.49,11.78-23.96,21.45-33.01
			c10.74-10.06,23.93-16.24,38.31-19.08c17.22-3.39,34.95-2.41,52.37-1.73c18.85,0.74,37.7,1.47,56.55,2.21
			c18.44,0.72,36.88,1.44,55.31,2.16C356.34,88.15,356.33,85.15,354.41,85.08L354.41,85.08z"/>
	</g>
</g>
</svg>
